/* XPM */
static char *ZZ 16 trans[] = {
/* width height num_colors chars_per_pixel */
"    16    16       35            1",
/* colors */
". c #d5f9ff",
"# c #cef2ff",
"a c #c4e7fd",
"b c #b2d6f6",
"c c #aecfea",
"d c #a9c2cb",
"e c #a8cae6",
"f c #a7c6dd",
"g c #a6c2c7",
"h c #9fbfd7",
"i c #99b5ca",
"j c #95b3cd",
"k c #93acc1",
"l c #91abb2",
"m c #8facc3",
"n c #8facbf",
"o c #8aa6be",
"p c #869ca6",
"q c #839db3",
"r c #8098ad",
"s c #7d9298",
"t c #778e9f",
"u c #6e8a97",
"v c #6c8496",
"w c #677f8f",
"x c #637e94",
"y c #5f7580",
"z c #5d707f",
"A c #5b6f7e",
"B c #586f81",
"C c #576874",
"D c #516576",
"E c #4f606e",
"F c #4d5d6c",
"G c None",
/* pixels */
"GGGGGGGGGGGGGGGG",
"GGpvplllllllllGG",
"GGlkidnsrpvsvulG",
"GGvxxBDtnuFAuuGG",
"GGsyyzEupvCzwlGG",
"GGGGGGuppGpvuGGG",
"GGGGGsnpGGuvlGGG",
"GGGGpqllGvrsGGGG",
"GGGlrnpGppslGGGG",
"GGGlfrGGlksGGGGG",
"GGpehlGskllGGGGG",
"GlfclGlojsGllllG",
"ldbckniehmqolouG",
"l.##accchkorpspG",
"dglllGlllGGGGGGG",
"GGGGGGGGGGGGGGGG"
};
