/* XPM */
static char *zzplayer[] = {
/* width height num_colors chars_per_pixel */
"    32    32      135            2",
/* colors */
".. c #d8fbff",
".# c #d2f8ff",
".a c #d2f7fe",
".b c #cff0ff",
".c c #c9edff",
".d c #c9eaf4",
".e c #c6e9fe",
".f c #c1e3fc",
".g c #bcdef9",
".h c #bbd5db",
".i c #b9d9e9",
".j c #b8d9f5",
".k c #b4d3de",
".l c #b3d5f1",
".m c #b1d2ed",
".n c #aed1ed",
".o c #abcff0",
".p c #aaccea",
".q c #a9cae4",
".r c #a7c8e3",
".s c #a6cae9",
".t c #a4c5e2",
".u c #a4c3d5",
".v c #a1bccd",
".w c #a0c2db",
".x c #9ec0da",
".y c #9cbdd9",
".z c #9cbbd4",
".A c #9ab9cc",
".B c #99b5cb",
".C c #98b1c6",
".D c #95b4c4",
".E c #93abbf",
".F c #92b1ca",
".G c #92adc2",
".H c #91afc8",
".I c #8daac4",
".J c #8daabe",
".K c #8da4b6",
".L c #8aa4bb",
".M c #89a6c0",
".N c #879ca6",
".O c #86a8b5",
".P c #85a3bb",
".Q c #84a3b2",
".R c #829eb8",
".S c #829cb3",
".T c #829bad",
".U c #82959d",
".V c #80a0ad",
".W c #7e99b1",
".X c #7d9ba6",
".Y c #7d8f94",
".Z c #7c9aac",
".0 c #7a94aa",
".1 c #7994a3",
".2 c #798d8f",
".3 c #788fa8",
".4 c #7392a2",
".5 c #73919c",
".6 c #738c9c",
".7 c #728da2",
".8 c #718595",
".9 c #708b97",
"#. c #6f909f",
"## c #6d88a1",
"#a c #6c899b",
"#b c #6c8994",
"#c c #6b8393",
"#d c #69849b",
"#e c #697a88",
"#f c #68858f",
"#g c #687e91",
"#h c #67797b",
"#i c #658292",
"#j c #64808d",
"#k c #637d91",
"#l c #637685",
"#m c #627b8c",
"#n c #627b85",
"#o c #5f8091",
"#p c #5f7c90",
"#q c #5f768a",
"#r c #5e7a89",
"#s c #5c7584",
"#t c #5b717e",
"#u c #5a6d7c",
"#v c #577485",
"#w c #55707d",
"#x c #526573",
"#y c #51616c",
"#z c #4f6c7b",
"#A c #4f677c",
"#B c #4e5f6d",
"#C c #4b6274",
"#D c #495964",
"#E c #45606e",
"#F c #455967",
"#G c #455254",
"#H c #445b73",
"#I c #43576b",
"#J c #435663",
"#K c #42515c",
"#L c #404c56",
"#M c #3d526b",
"#N c #3d5266",
"#O c #3d4a54",
"#P c #3a4e62",
"#Q c #3a4650",
"#R c #394a5b",
"#S c #38444d",
"#T c #374858",
"#U c #374047",
"#V c #354553",
"#W c #35414a",
"#X c #323d44",
"#Y c #2e383d",
"#Z c #2d3c44",
"#0 c #2c3b4a",
"#1 c #2b343a",
"#2 c #293642",
"#3 c #282e2f",
"#4 c #253242",
"#5 c #222d3a",
"#6 c #222a30",
"#7 c #22292d",
"#8 c #1b242a",
"#9 c #1b2126",
"a. c #151f29",
"a# c #151a1e",
"aa c #121519",
"ab c #111416",
"ac c #090a0c",
"ad c #000000",
"ae c None",
/* pixels */
"aeaeaeaeaeaeaeaeaeaeaeaeaeaeaeaeaeaeaeaeaeaeaeaeaeaeaeaeaeaeaeae",
"aeaeaeaeaeaeaeaeaeaeaeaeaeaeaeaeaeaeaeaeaeaeaeaeaeaeaeaeaeaeaeae",
"aeaeaeaeab#1#D#L#L#X#Y#1#1#3#9#9aba#aba#aba#aba#aba#aba#aba#aeae",
"aeaeaeaea##K.L.7#c#d#d.0.Z#b#t#A#x#x#t#y#D#K#K#L#S#S#X#X#3abaeae",
"aeaeaeaeab#x.0.7.Z.G.E.D.D.D.1#d.5.0.K.0.4.4.Z.1#b#..1.V#m#9aeae",
"aeaeaeae#3.T.B.C.D.v.k.u.A.A.P.4.Q.O.O#.#o#i#a.4#o#i###a#Fabaeae",
"aeaeaeaeab#m.6.7###d.7#c#m#g#g.4.O.Q.Q.4#v#w#r#r#i#a#o#l#Ya#aeae",
"aeaeaeae#9#R#H#C#H#H#N#P#T#V#F.5.Q.Q.O#s#J#R#T#C#j#i#v#Va#aeaeae",
"aeaeaeaeab#W#H#H#H#H#M#P#T#T#n#b.5.V.6#I#N#R#P#j#r#w#E#1abaeaeae",
"aeaeaeaea#a.#4#4#2#4#4#4#5#x.9#b#b.9#O#0#0#0#w#f#w#z#Wabaeaeaeae",
"aeaeaeaeababa#aba#aba#ad#6#b.5.5.1adaba#ac#V#f#j#w#B#1a#aeaeaeae",
"aeaeaeaeaeaeaeaeaeaea#ac#t.1.1.X#nadaeab#8#C#r#j#r#Za#aeaeaeaeae",
"aeaeaeaeaeaeaeaeaeaeab#L.Z.Z.X.1#Yadaead#D#c#q#k#t#1abaeaeaeaeae",
"aeaeaeaeaeaeaeaeaea##G.6.S.P.Q#xadaeadad#c.6#c#m#0abaeaeaeaeaeae",
"aeaeaeaeaeaeaeaeab#3#u.3.S.L.X#8adaead#C#g.7.1#l#1a#aeaeaeaeaeae",
"aeaeaeaeaeaeaeaba##K.0.3.W.Lada#aeadad#k#g.3.S#Labaeaeaeaeaeaeae",
"aeaeaeaeaeaeaea##1.S.S.0.S#cadaeadad#q.8#d.7.8#1abaeaeaeaeaeaeae",
"aeaeaeaeaeaeab#Y.8.G.L.L.Eada#aead#C.0.0.3.7#Sabaeaeaeaeaeaeaeae",
"aeaeaeaeaea#ab#x.B.B.C.v#eadaeadad.7.L.K.T#l#3a#aeaeaeaeaeaeaeae",
"aeaeaeaeaeab#S.F.w.z.A.J#6adaead#p.L.G.K.T#Sabaeaeaeaeaeaeaeaeae",
"aeaeaeaea##1.T.z.w.u.z#3a#aeadad.W.P.G.R#l#7abaeaeaeaeaeaeaeaeae",
"aeaeaeabab#u.z.w.t.w.Xadaea#ad##.P.P.P.R#Wabaeaeaeaeaeaeaeaeaeae",
"aeaeaeab#L.w.w.q.t.y#Qadaead#A.F.M.P.P#maca#aba#aba#ab#9#9a#aeae",
"aeaea##Y.E.n.p.p.r#gacab#9#1.W.F.I.M.P#t#S#L#K#y#u#u#u#l#l#Uaeae",
"aea#ab#m.p.p.p.s.r.0#c.6.1.L.B.y.w.H.M.I.I.S.R.L.L.S.0.S.S#Uaeae",
"aeab#L.m.o.o.m.n.o.p.t.w.y.w.r.p.m.u.B.F.H.M.M.M.I.S.0.W.S#Uaeae",
"ab#L.v.f.g.g.f.g.j.l.n.r.t.r.l.l.l.q.z.F.H.I.G.I.H.M.L.L.L#Yaeae",
"ad.Y.a.b.b.c.c.c.e.f.f.j.n.m.j.m.r.x.B.M.S.7#c#t#x#D#L#U#Y#9aeae",
"aa.h.a.a...#.#.a.d.i.u.G.T.6#l#y#L#X#G#S#1#9a#aba#aba#aba#abaeae",
"ab.U.N.2#h#y#G#U#3#U#3#9aba#aba#aba#abaeaeaeaeaeaeaeaeaeaeaeaeae",
"aba#aaaba#aba#aba#abaeaeaeaeaeaeaeaeaeaeaeaeaeaeaeaeaeaeaeaeaeae",
"aeaeaeaeaeaeaeaeaeaeaeaeaeaeaeaeaeaeaeaeaeaeaeaeaeaeaeaeaeaeaeae"
};
