/* XPM */
static char*ak_maximize[]={
"22 22 5 1",
"a c #400000",
"# c #303030",
"b c #0000ff",
". c None",
"c c #ffffff",
"......................",
"......................",
"......................",
"...####........aaaa...",
"...##............aa...",
"...#.#..........a.a...",
"...#..#........a..a...",
".......########.......",
".......#bbbbbb#.......",
".......#bbbbbb#.......",
".......#cccccc#.......",
".......#cccccc#.......",
".......#cccccc#.......",
".......#cccccc#.......",
".......########.......",
"...a..a........a..a...",
"...a.a..........a.a...",
"...aa............aa...",
"...aaaa........aaaa...",
"......................",
"......................",
"......................"};
