/* XPM */
static char*open[]={
"14 15 2 1",
". c #c3c3c3",
"# c #000000",
"..............",
"..............",
"......#.......",
".....###......",
"....#####.....",
"...#######....",
"..#########...",
".###########..",
"..............",
"..............",
".###########..",
".###########..",
".###########..",
"..............",
".............."};
