/* XPM */
static char*pause[]={
"14 15 3 1",
"# c #000000",
"a c #303030",
". c None",
"..............",
"..............",
"..###...aa#...",
"..###...###...",
"..###...###...",
"..###...###...",
"..###...###...",
"..###...###...",
"..###...###...",
"..###...###...",
"..###...###...",
"..###...###...",
"..###...###...",
"..............",
".............."};
