/* XPM */
static char*sound[]={
"16 22 114 2",
"#c c #dadadc",
".k c #0ec2cc",
".1 c #027684",
".F c #06cad4",
".z c #767a84",
"#N c #1e6674",
".6 c #027e8c",
".8 c #e2e2e4",
"#U c #1a2e2c",
"#v c #028694",
".5 c #0296a4",
".# c #020204",
".X c #f2f2f4",
".c c #6a6a64",
".U c #02a6b4",
"#T c #cac6cc",
"#x c #fafafc",
"#K c #ceced4",
".b c #26f2fc",
".T c #02b6c4",
".D c #02becc",
".H c #4e4e4c",
".n c #82827c",
".p c #02cedc",
"#w c #425e5c",
"#p c #023a3c",
"#l c #565654",
".P c #8a8a84",
"#j c #028a9c",
".i c #5e5e5c",
"#Q c #1e3a3c",
".o c #1adeec",
".4 c #029aac",
".e c #666664",
"#I c #264244",
".C c #1ae6f4",
".m c #6a6e6c",
".s c #6e6e6c",
".a c #364244",
".q c #1e9aac",
".j c #767674",
".t c #7e7e7c",
".2 c #028284",
".B c #465254",
"#z c #022e34",
"#F c #0e2e34",
".u c #868684",
"#V c #729694",
".3 c #029294",
".x c #02daec",
".r c #5a5a5c",
"#o c #000000",
"#q c #064e54",
".l c #626264",
".d c #666264",
"#f c #02565c",
".7 c #929e9c",
"#s c #025e64",
".y c #26869c",
".Q c #9e9e9c",
"#D c #d2d2cc",
"#t c #02666c",
".f c #727274",
"#u c #026e74",
".K c #a6a6a4",
".W c #a2aeac",
"#a c #02767c",
"#d c #e2e2dc",
"#k c #6e8a8c",
".N c #9ebebc",
".R c #b6b6b4",
"#L c #eaeae4",
"#R c #263e34",
"#n c #f2f2ec",
".0 c #c2bebc",
"#O c #c6bebc",
".I c #929294",
".9 c #c6c6c4",
"#A c #02525c",
".g c #2e323c",
"#E c #fafaf4",
"#r c #025a64",
".J c #9a9a9c",
"#S c #42868c",
"#g c #02626c",
"#h c #026a74",
"#H c #d6d6d4",
"#i c #02727c",
"Qt c None",
"#e c #dededc",
"## c #027a84",
".Z c #aeb2b4",
"#M c #1a3a34",
".V c #02929c",
".O c #bababc",
"#m c #eeeeec",
".L c #029aa4",
".v c #12e6ec",
".h c #466a74",
".A c #8e8e94",
"#C c #c2c2c4",
"#y c #f6f6f4",
"#. c #c6c2c4",
"#B c #829ea4",
".S c #02aab4",
"#P c #cacacc",
".M c #02b2bc",
"#b c #92a6ac",
".w c #02bac4",
".Y c #d2d2d4",
"#J c #5a828c",
".E c #02c2cc",
".G c #265664",
"#G c #62828c",
"QtQtQtQtQtQtQtQtQtQt.#.#.aQtQtQt",
"QtQtQtQtQtQtQtQtQt.#.b.c.d.aQtQt",
"QtQtQtQtQtQtQtQt.#.b.d.e.f.gQtQt",
"QtQtQtQtQtQtQt.#.b.h.i.c.j.f.aQt",
"QtQtQtQtQtQt.#.b.k.l.i.m.j.n.aQt",
"QtQtQtQtQt.#.o.p.q.r.l.s.t.u.aQt",
"QtQtQtQt.#.v.w.x.y.r.c.z.u.A.z.B",
"Qt.#.#.#.C.D.E.F.G.H.c.n.I.J.K.B",
".#.L.p.p.w.E.p.M.N.O.f.P.Q.K.R.B",
".#.L.L.S.S.T.U.V.W.X.Y.Q.Z.R.0.B",
".#.1.2.3.V.4.5.6.7.0.8.9#..9.Y.B",
".########a#a.6.2#b.P.H#c#d#e.8.B",
".##f#g#g#h#i#i#j#k#l.f#m.X#m#n.B",
"#o#p#q#r#s#t#u#v#w.l#c#m#x#x#y.B",
"QtQt#z#z#A#r#h.1#B#C#D.8#m#y#E.B",
"QtQtQtQt#F#A#t#g#G.Z.9#H.8#m.W.B",
"QtQtQtQtQt#I#f#t#J.0#C#K#e#L.aQt",
"QtQtQtQtQtQt#M#f#N#O#C#P#c#L.aQt",
"QtQtQtQtQtQtQt#Q#r.R.9#P#H#P.aQt",
"QtQtQtQtQtQtQtQt#R#S.9#T#c.aQtQt",
"QtQtQtQtQtQtQtQtQt#U#V.9#T.aQtQt",
"QtQtQtQtQtQtQtQtQtQt.#.#.aQtQtQt"};
