/* XPM */
static char*parar[]={
"14 15 2 1",
"# c #000000",
". c None",
"..............",
"..............",
"..##########..",
"..##########..",
"..##########..",
"..##########..",
"..##########..",
"..##########..",
"..##########..",
"..##########..",
"..##########..",
"..##########..",
"..##########..",
"..............",
".............."};
